<?xml version="1.0" encoding="utf-8"?>
<!-- Generator: Adobe Illustrator 22.1.0, SVG Export Plug-In . SVG Version: 6.00 Build 0)  -->
<svg version="1.1" id="Layer_1" xmlns="http://www.w3.org/2000/svg" xmlns:xlink="http://www.w3.org/1999/xlink" x="0px" y="0px"
	 viewBox="0 0 226.7 74" style="enable-background:new 0 0 226.7 74;" xml:space="preserve">
<style type="text/css">
	.st0{fill:#FFFFFF;}
</style>
<g>
	<path class="st0" d="M91.2,11.2c0-2,0-2.3,0-2.8c0-0.4-0.1-0.6-0.6-0.7c-0.1,0-0.3,0-0.5,0c-0.1,0-0.2,0-0.2-0.1
		c0-0.1,0.1-0.1,0.3-0.1c0.7,0,1.5,0,1.9,0c0.5,0,1.3,0,1.9,0c1.6,0,2.2,0.5,2.4,0.7C96.7,8.4,97,9,97,9.7c0,1.8-1.4,3.1-3.2,3.1
		c-0.1,0-0.2,0-0.3,0c-0.1,0-0.2,0-0.2-0.1c0-0.1,0.1-0.1,0.4-0.1c0.7,0,1.7-0.8,1.7-2.1c0-0.4,0-1.3-0.8-1.9C94.3,8,93.7,8,93.4,8
		c-0.2,0-0.4,0-0.5,0.1c-0.1,0-0.1,0.1-0.1,0.2v5.2c0,1.2,0,2.2,0.1,2.8c0,0.4,0.1,0.7,0.5,0.7c0.2,0,0.5,0.1,0.7,0.1
		c0.1,0,0.2,0,0.2,0.1c0,0.1-0.1,0.1-0.2,0.1c-0.9,0-1.7,0-2,0c-0.3,0-1.1,0-1.6,0c-0.2,0-0.3,0-0.3-0.1c0-0.1,0.1-0.1,0.2-0.1
		c0.2,0,0.4,0,0.5-0.1c0.3-0.1,0.3-0.3,0.4-0.7c0.1-0.5,0.1-1.6,0.1-2.8V11.2z"/>
	<path class="st0" d="M98.6,11.2c0-2,0-2.3,0-2.8c0-0.4-0.1-0.6-0.6-0.7c-0.1,0-0.3,0-0.5,0c-0.1,0-0.2,0-0.2-0.1
		c0-0.1,0.1-0.1,0.3-0.1c0.7,0,1.5,0,1.8,0c0.4,0,1.4,0,1.8,0c0.8,0,1.7,0.1,2.4,0.6c0.4,0.2,0.9,0.9,0.9,1.8c0,1-0.4,1.8-1.7,2.9
		c1.2,1.5,2.1,2.6,2.8,3.4c0.7,0.8,1.3,0.8,1.5,0.9c0.1,0,0.3,0,0.4,0c0.1,0,0.2,0,0.2,0.1c0,0.1-0.1,0.1-0.2,0.1h-1.2
		c-0.7,0-1.1-0.1-1.4-0.2c-0.6-0.3-1.1-0.9-1.8-1.9c-0.5-0.7-1.1-1.6-1.3-1.8c-0.1-0.1-0.1-0.1-0.2-0.1l-1.1,0c-0.1,0-0.1,0-0.1,0.1
		v0.2c0,1.2,0,2.2,0.1,2.8c0,0.4,0.1,0.7,0.5,0.7c0.2,0,0.5,0.1,0.6,0.1c0.1,0,0.2,0,0.2,0.1c0,0.1-0.1,0.1-0.3,0.1
		c-0.8,0-1.7,0-1.9,0c-0.2,0-1.1,0-1.6,0c-0.2,0-0.3,0-0.3-0.1c0-0.1,0.1-0.1,0.2-0.1c0.2,0,0.4,0,0.5-0.1c0.3-0.1,0.3-0.3,0.4-0.7
		c0.1-0.5,0.1-1.6,0.1-2.8V11.2z M100.1,12.2c0,0.1,0,0.2,0.1,0.2c0.3,0.1,0.7,0.1,1,0.1c0.5,0,0.7-0.1,0.9-0.2
		c0.4-0.3,0.8-0.9,0.8-2c0-1.8-1.2-2.4-2-2.4c-0.3,0-0.6,0-0.7,0.1c-0.1,0-0.1,0.1-0.1,0.2V12.2z"/>
	<path class="st0" d="M106.2,12.3c0-2.2,1.5-5.1,5.4-5.1c3.2,0,5.3,1.9,5.3,4.9c0,3-2.1,5.3-5.4,5.3
		C107.7,17.4,106.2,14.6,106.2,12.3z M115,12.6c0-2.9-1.7-4.7-3.8-4.7c-1.5,0-3.2,0.8-3.2,4.1c0,2.7,1.5,4.8,4,4.8
		C112.9,16.8,115,16.3,115,12.6z"/>
	<path class="st0" d="M120.2,13.5c0,1.2,0,2.2,0.1,2.8c0,0.4,0.1,0.7,0.5,0.7c0.2,0,0.5,0.1,0.7,0.1c0.2,0,0.2,0,0.2,0.1
		c0,0.1-0.1,0.1-0.3,0.1c-0.8,0-1.6,0-2,0c-0.3,0-1.2,0-1.7,0c-0.2,0-0.3,0-0.3-0.1c0-0.1,0.1-0.1,0.2-0.1c0.2,0,0.4,0,0.5-0.1
		c0.3-0.1,0.3-0.3,0.4-0.7c0.1-0.5,0.1-1.5,0.1-2.8v-2.3c0-2,0-2.3,0-2.8c0-0.4-0.1-0.6-0.6-0.7c-0.1,0-0.3,0-0.5,0
		c-0.1,0-0.2,0-0.2-0.1c0-0.1,0.1-0.1,0.3-0.1c0.3,0,0.7,0,1.1,0c0.3,0,0.6,0,0.8,0c0.5,0,3.1,0,3.4,0c0.2,0,0.4,0,0.5-0.1
		c0.1,0,0.1-0.1,0.2-0.1c0.1,0,0.1,0.1,0.1,0.1c0,0.1-0.1,0.2-0.1,0.6c0,0.1,0,0.9-0.1,1.1c0,0.1,0,0.2-0.1,0.2
		c-0.1,0-0.1-0.1-0.1-0.2c0-0.1,0-0.3-0.1-0.5c-0.1-0.2-0.4-0.4-0.9-0.4l-2,0c-0.1,0-0.1,0-0.1,0.2v3.2c0,0.1,0,0.1,0.1,0.1l1.7,0
		c0.2,0,0.4,0,0.6,0c0.2,0,0.4-0.1,0.6-0.2c0.1-0.1,0.1-0.1,0.2-0.1c0.1,0,0.1,0,0.1,0.1c0,0.1-0.1,0.4-0.1,0.8
		c0,0.3-0.1,0.9-0.1,0.9c0,0.1,0,0.2-0.1,0.2c-0.1,0-0.1-0.1-0.1-0.2c0-0.1,0-0.2-0.1-0.4c-0.1-0.2-0.3-0.4-0.7-0.5
		c-0.3,0-1.7,0-1.9,0c-0.1,0-0.1,0-0.1,0.1V13.5z"/>
	<path class="st0" d="M125.9,11.2c0-2,0-2.3,0-2.8c0-0.4-0.1-0.6-0.6-0.7c-0.1,0-0.3,0-0.5,0c-0.1,0-0.2,0-0.2-0.1
		c0-0.1,0.1-0.1,0.3-0.1c0.4,0,0.7,0,1.1,0c0.3,0,0.6,0,0.8,0c0.4,0,3,0,3.3,0c0.2,0,0.5-0.1,0.6-0.1c0.1,0,0.1-0.1,0.2-0.1
		c0.1,0,0.1,0.1,0.1,0.1c0,0.1-0.1,0.2-0.1,0.8c0,0.1,0,0.7-0.1,0.9c0,0.1,0,0.1-0.1,0.1c-0.1,0-0.1-0.1-0.1-0.2
		c0-0.1,0-0.3-0.1-0.5c-0.1-0.2-0.2-0.4-0.9-0.5c-0.2,0-1.6-0.1-1.8-0.1c-0.1,0-0.1,0-0.1,0.1v3.3c0,0.1,0,0.1,0.1,0.1
		c0.3,0,1.8,0,2.1,0c0.3,0,0.5-0.1,0.6-0.2c0.1-0.1,0.1-0.2,0.2-0.2c0.1,0,0.1,0,0.1,0.1c0,0.1-0.1,0.3-0.1,0.9
		c0,0.3-0.1,0.8-0.1,0.9c0,0.1,0,0.2-0.1,0.2c-0.1,0-0.1-0.1-0.1-0.1c0-0.1,0-0.3-0.1-0.5c-0.1-0.3-0.2-0.5-0.7-0.5
		c-0.2,0-1.5,0-1.8,0c-0.1,0-0.1,0.1-0.1,0.1v1c0,0.4,0,1.6,0,2c0,0.9,0.2,1.1,1.6,1.1c0.3,0,0.9,0,1.2-0.2c0.3-0.2,0.5-0.4,0.6-1
		c0-0.1,0.1-0.2,0.1-0.2c0.1,0,0.1,0.1,0.1,0.2c0,0.3-0.1,1.2-0.2,1.4c-0.1,0.3-0.2,0.3-0.7,0.3c-1,0-1.7,0-2.2,0c-0.6,0-1,0-1.4,0
		c-0.1,0-0.4,0-0.7,0c-0.3,0-0.6,0-0.9,0c-0.2,0-0.3,0-0.3-0.1c0-0.1,0.1-0.1,0.2-0.1c0.2,0,0.4,0,0.5-0.1c0.3-0.1,0.3-0.3,0.4-0.7
		c0.1-0.5,0.1-1.6,0.1-2.8V11.2z"/>
	<path class="st0" d="M132.4,17.1c-0.2-0.1-0.2-0.2-0.2-0.4c0-0.7,0.1-1.5,0.1-1.7c0-0.2,0.1-0.3,0.2-0.3c0.1,0,0.1,0.1,0.1,0.2
		c0,0.2,0.1,0.4,0.1,0.7c0.3,1,1.1,1.3,1.9,1.3c1.2,0,1.7-0.8,1.7-1.5c0-0.6-0.2-1.2-1.3-2.1l-0.6-0.5c-1.4-1.1-1.9-2-1.9-3.1
		c0-1.4,1.2-2.5,3-2.5c0.8,0,1.4,0.1,1.7,0.2c0.1,0,0.2,0.1,0.2,0.2c0,0.2-0.1,0.5-0.1,1.6c0,0.3,0,0.4-0.1,0.4
		c-0.1,0-0.1-0.1-0.1-0.2c0-0.1-0.1-0.5-0.3-0.9c-0.2-0.2-0.6-0.6-1.4-0.6c-1,0-1.5,0.6-1.5,1.3c0,0.6,0.3,1.1,1.4,1.9l0.4,0.3
		c1.6,1.2,2.1,2.1,2.1,3.3c0,0.8-0.3,1.7-1.2,2.3c-0.6,0.4-1.4,0.5-2.1,0.5C133.5,17.4,133,17.3,132.4,17.1z"/>
	<path class="st0" d="M138.9,17.1c-0.2-0.1-0.2-0.2-0.2-0.4c0-0.7,0.1-1.5,0.1-1.7c0-0.2,0.1-0.3,0.2-0.3c0.1,0,0.1,0.1,0.1,0.2
		c0,0.2,0.1,0.4,0.1,0.7c0.3,1,1.1,1.3,1.9,1.3c1.2,0,1.7-0.8,1.7-1.5c0-0.6-0.2-1.2-1.3-2.1l-0.6-0.5c-1.4-1.1-1.9-2-1.9-3.1
		c0-1.4,1.2-2.5,3-2.5c0.8,0,1.4,0.1,1.7,0.2c0.1,0,0.2,0.1,0.2,0.2c0,0.2-0.1,0.5-0.1,1.6c0,0.3,0,0.4-0.1,0.4
		c-0.1,0-0.1-0.1-0.1-0.2c0-0.1-0.1-0.5-0.3-0.9c-0.2-0.2-0.6-0.6-1.4-0.6c-1,0-1.5,0.6-1.5,1.3c0,0.6,0.3,1.1,1.4,1.9l0.4,0.3
		c1.6,1.2,2.1,2.1,2.1,3.3c0,0.8-0.3,1.7-1.2,2.3c-0.6,0.4-1.4,0.5-2.1,0.5C140.1,17.4,139.5,17.3,138.9,17.1z"/>
	<path class="st0" d="M146.2,11.2c0-2,0-2.3,0-2.8c0-0.4-0.2-0.7-0.4-0.7c-0.1,0-0.3-0.1-0.5-0.1c-0.1,0-0.2,0-0.2-0.1
		c0-0.1,0.1-0.1,0.3-0.1c0.5,0,1.3,0,1.7,0c0.3,0,1.1,0,1.6,0c0.2,0,0.3,0,0.3,0.1c0,0.1-0.1,0.1-0.2,0.1c-0.1,0-0.2,0-0.4,0
		c-0.4,0.1-0.5,0.3-0.5,0.7c0,0.4,0,0.8,0,2.8v2.3c0,1.3,0,2.3,0.1,2.8c0,0.4,0.1,0.6,0.5,0.6c0.2,0,0.5,0.1,0.7,0.1
		c0.1,0,0.2,0,0.2,0.1c0,0.1-0.1,0.1-0.2,0.1c-0.9,0-1.7,0-2,0c-0.3,0-1.1,0-1.6,0c-0.2,0-0.3,0-0.3-0.1c0-0.1,0.1-0.1,0.2-0.1
		c0.2,0,0.4,0,0.5-0.1c0.3-0.1,0.3-0.3,0.4-0.6c0.1-0.5,0.1-1.6,0.1-2.8V11.2z"/>
	<path class="st0" d="M149.5,12.3c0-2.2,1.5-5.1,5.4-5.1c3.2,0,5.3,1.9,5.3,4.9c0,3-2.1,5.3-5.4,5.3C151,17.4,149.5,14.6,149.5,12.3
		z M158.3,12.6c0-2.9-1.7-4.7-3.8-4.7c-1.5,0-3.2,0.8-3.2,4.1c0,2.7,1.5,4.8,4,4.8C156.2,16.8,158.3,16.3,158.3,12.6z"/>
	<path class="st0" d="M162.7,15.5c0,1,0.2,1.4,0.5,1.4c0.2,0.1,0.5,0.1,0.7,0.1c0.1,0,0.2,0,0.2,0.1c0,0.1-0.1,0.1-0.3,0.1
		c-0.8,0-1.4,0-1.6,0c-0.1,0-0.7,0-1.4,0c-0.2,0-0.3,0-0.3-0.1c0-0.1,0.1-0.1,0.2-0.1c0.2,0,0.4,0,0.6-0.1c0.3-0.1,0.4-0.5,0.4-1.6
		l0.1-7.7c0-0.3,0-0.4,0.2-0.4c0.1,0,0.3,0.2,0.5,0.4c0.2,0.2,2.1,2.3,4,4.2c0.9,0.9,2.6,2.8,2.9,3h0.1l-0.1-5.8
		c0-0.8-0.1-1-0.4-1.2c-0.2-0.1-0.5-0.1-0.7-0.1c-0.2,0-0.2,0-0.2-0.1c0-0.1,0.1-0.1,0.3-0.1c0.7,0,1.3,0,1.6,0c0.1,0,0.6,0,1.3,0
		c0.2,0,0.3,0,0.3,0.1c0,0.1-0.1,0.1-0.2,0.1c-0.1,0-0.2,0-0.4,0c-0.4,0.1-0.5,0.4-0.5,1.1l-0.1,8.2c0,0.3-0.1,0.4-0.2,0.4
		c-0.1,0-0.3-0.1-0.4-0.3c-0.8-0.8-2.5-2.5-3.8-3.8c-1.4-1.4-2.9-3-3.1-3.3h0L162.7,15.5z"/>
	<path class="st0" d="M174.3,13.8c-0.1,0-0.1,0-0.1,0.1l-0.7,1.9c-0.1,0.3-0.2,0.6-0.2,0.8c0,0.2,0.1,0.4,0.5,0.4h0.2
		c0.2,0,0.2,0,0.2,0.1c0,0.1-0.1,0.1-0.2,0.1c-0.4,0-1,0-1.4,0c-0.1,0-0.9,0-1.5,0c-0.2,0-0.2,0-0.2-0.1c0-0.1,0.1-0.1,0.2-0.1
		c0.1,0,0.3,0,0.4,0c0.6-0.1,0.8-0.5,1.1-1.2l3.3-8.2c0.2-0.4,0.2-0.5,0.4-0.5c0.1,0,0.2,0.1,0.3,0.4c0.3,0.7,2.4,6,3.2,8
		c0.5,1.2,0.9,1.4,1.1,1.4c0.2,0,0.4,0.1,0.5,0.1c0.1,0,0.2,0,0.2,0.1c0,0.1-0.1,0.1-0.6,0.1c-0.5,0-1.4,0-2.5,0
		c-0.2,0-0.4,0-0.4-0.1c0-0.1,0.1-0.1,0.2-0.1c0.1,0,0.2-0.1,0.1-0.3l-1-2.8c0-0.1-0.1-0.1-0.1-0.1H174.3z M176.9,13.2
		C177,13.2,177,13.2,176.9,13.2l-1.1-3.3c0-0.1,0-0.1-0.1-0.1c0,0-0.1,0.1-0.1,0.1l-1.2,3.2c0,0.1,0,0.1,0.1,0.1H176.9z"/>
	<path class="st0" d="M184.4,13.5c0,1.7,0,2.6,0.3,2.8c0.2,0.2,0.6,0.3,1.6,0.3c0.7,0,1.2,0,1.5-0.4c0.2-0.2,0.3-0.5,0.3-0.8
		c0-0.1,0-0.2,0.1-0.2c0.1,0,0.1,0.1,0.1,0.2c0,0.1-0.1,1.1-0.2,1.5c-0.1,0.3-0.1,0.4-0.8,0.4c-0.9,0-1.6,0-2.2,0
		c-0.6,0-1.1,0-1.6,0c-0.1,0-0.4,0-0.7,0c-0.3,0-0.6,0-0.9,0c-0.2,0-0.3,0-0.3-0.1c0-0.1,0.1-0.1,0.2-0.1c0.2,0,0.4,0,0.5-0.1
		c0.3-0.1,0.3-0.3,0.4-0.7c0.1-0.5,0.1-1.6,0.1-2.8v-2.3c0-2,0-2.3,0-2.8c0-0.4-0.1-0.6-0.6-0.7c-0.1,0-0.3,0-0.4,0
		c-0.1,0-0.2,0-0.2-0.1c0-0.1,0.1-0.1,0.3-0.1c0.6,0,1.4,0,1.8,0c0.3,0,1.3,0,1.8,0c0.2,0,0.3,0,0.3,0.1c0,0.1-0.1,0.1-0.2,0.1
		c-0.1,0-0.4,0-0.5,0c-0.4,0.1-0.5,0.3-0.5,0.7c0,0.4,0,0.8,0,2.8V13.5z"/>
	<path class="st0" d="M92,25.5c-0.5-0.7-0.6-1.3-0.7-1.8c0-1,0.9-2.4,3.2-2.4c0.6,0,1.2,0.1,1.6,0.3c0.2,0.1,0.2,0.2,0.2,0.3
		c0,0.4-0.1,1.5-0.1,1.7c0,0.2-0.1,0.2-0.2,0.2c-0.1,0-0.1-0.1-0.1-0.2c0-0.3-0.1-0.8-0.4-1.1c-0.3-0.3-0.7-0.6-1.4-0.6
		c-0.5,0-1.4,0.4-1.4,1.5c0,1.2,1.1,2.3,2.2,3.4c0.4,0.5,2,2,2.3,2.2c0.3-0.4,0.6-1.2,0.6-2c0-0.2-0.1-0.4-0.2-0.6
		c-0.2-0.2-0.4-0.2-0.6-0.2c-0.1,0-0.2,0-0.2-0.1c0-0.1,0.1-0.1,0.2-0.1c0.3,0,0.8,0,1.6,0.1c0.2,0,0.4,0.1,0.4,0.3
		c0,1-0.5,2.2-1.3,3.1c0.9,0.7,1.5,1.1,1.8,1.3c0.4,0.2,1.1,0.5,1.4,0.5c0.1,0,0.2,0,0.2,0.1c0,0.1-0.1,0.1-0.4,0.1h-1
		c-1.5,0-2-0.1-3.1-1c-0.4,0.4-1.3,1.2-3.1,1.2c-2.8,0-3.6-1.7-3.6-2.9C89.9,27,91.2,25.8,92,25.5z M96,29.8c-0.8-0.7-2-1.9-2.3-2.2
		c-0.3-0.4-1.2-1.3-1.4-1.6c-0.4,0.3-0.9,0.9-0.9,2c0,1.6,1.1,2.7,2.5,2.7C94.9,30.6,95.8,30.1,96,29.8z"/>
	<path class="st0" d="M104.8,30c-1.3-1.1-1.6-2.6-1.6-3.8c0-0.9,0.3-2.4,1.5-3.6c0.9-0.9,2.2-1.4,4.1-1.4c0.8,0,1.3,0.1,1.9,0.1
		c0.5,0.1,0.9,0.2,1.3,0.2c0.1,0,0.2,0.1,0.2,0.2c0,0.1,0,0.3-0.1,0.7c0,0.4,0,1.1,0,1.4c0,0.2,0,0.3-0.2,0.3
		c-0.1,0-0.1-0.1-0.1-0.3c0-0.4-0.2-0.9-0.5-1.2c-0.4-0.5-1.4-0.8-2.6-0.8c-1.1,0-1.9,0.3-2.4,0.8c-0.9,0.9-1.2,2.1-1.2,3.4
		c0,3.1,2.4,4.6,4.1,4.6c1.2,0,1.9-0.1,2.4-0.7c0.2-0.2,0.4-0.6,0.4-0.9c0-0.2,0.1-0.3,0.2-0.3c0.1,0,0.1,0.1,0.1,0.2
		c0,0.2-0.2,1.3-0.3,1.7c-0.1,0.2-0.1,0.3-0.3,0.4c-0.5,0.2-1.5,0.3-2.3,0.3C107.5,31.4,106,31,104.8,30z"/>
	<path class="st0" d="M112.8,26.3c0-2.2,1.5-5.1,5.4-5.1c3.2,0,5.3,1.9,5.3,4.9c0,3-2.1,5.3-5.4,5.3
		C114.3,31.4,112.8,28.6,112.8,26.3z M121.6,26.6c0-2.9-1.7-4.7-3.8-4.7c-1.5,0-3.2,0.8-3.2,4.1c0,2.7,1.5,4.8,4,4.8
		C119.5,30.8,121.6,30.3,121.6,26.6z"/>
	<path class="st0" d="M126,29.5c0,1,0.2,1.4,0.5,1.4c0.2,0.1,0.5,0.1,0.7,0.1c0.1,0,0.2,0,0.2,0.1c0,0.1-0.1,0.1-0.3,0.1
		c-0.8,0-1.4,0-1.6,0c-0.1,0-0.7,0-1.4,0c-0.2,0-0.3,0-0.3-0.1c0-0.1,0.1-0.1,0.2-0.1c0.2,0,0.4,0,0.6-0.1c0.3-0.1,0.4-0.5,0.4-1.6
		l0.1-7.7c0-0.3,0-0.4,0.2-0.4c0.1,0,0.3,0.2,0.5,0.4c0.2,0.2,2.1,2.3,4,4.2c0.9,0.9,2.6,2.8,2.9,3h0.1l-0.1-5.8
		c0-0.8-0.1-1-0.4-1.2c-0.2-0.1-0.5-0.1-0.7-0.1c-0.2,0-0.2,0-0.2-0.1c0-0.1,0.1-0.1,0.3-0.1c0.7,0,1.3,0,1.6,0c0.1,0,0.6,0,1.3,0
		c0.2,0,0.3,0,0.3,0.1c0,0.1-0.1,0.1-0.2,0.1c-0.1,0-0.2,0-0.4,0c-0.4,0.1-0.5,0.4-0.5,1.1l-0.1,8.2c0,0.3-0.1,0.4-0.2,0.4
		c-0.1,0-0.3-0.1-0.4-0.3c-0.8-0.8-2.5-2.5-3.8-3.8c-1.4-1.4-2.9-3-3.1-3.3h0L126,29.5z"/>
	<path class="st0" d="M138.8,22.1l-1.9,0.1c-0.8,0-1.1,0.1-1.3,0.4c-0.1,0.2-0.2,0.4-0.2,0.5c0,0.1-0.1,0.2-0.1,0.2
		c-0.1,0-0.1-0.1-0.1-0.2c0-0.2,0.2-1.4,0.3-1.5c0-0.2,0.1-0.2,0.2-0.2c0.1,0,0.2,0.1,0.6,0.2c0.4,0,0.9,0.1,1.3,0.1h5.1
		c0.4,0,0.7,0,0.9-0.1c0.2,0,0.3-0.1,0.4-0.1c0.1,0,0.1,0.1,0.1,0.3c0,0.3,0,1.2,0,1.5c0,0.1,0,0.2-0.1,0.2c-0.1,0-0.1-0.1-0.1-0.3
		l0-0.1c0-0.3-0.4-0.7-1.5-0.7l-1.6,0v5.3c0,1.2,0,2.2,0.1,2.8c0,0.4,0.1,0.7,0.5,0.7c0.2,0,0.5,0.1,0.7,0.1c0.1,0,0.2,0,0.2,0.1
		c0,0.1-0.1,0.1-0.2,0.1c-0.9,0-1.7,0-2,0c-0.3,0-1.1,0-1.6,0c-0.2,0-0.3,0-0.3-0.1c0-0.1,0.1-0.1,0.2-0.1c0.2,0,0.4,0,0.5-0.1
		c0.3-0.1,0.3-0.3,0.4-0.7c0.1-0.5,0.1-1.6,0.1-2.8V22.1z"/>
	<path class="st0" d="M145.7,25.2c0-2,0-2.3,0-2.8c0-0.4-0.2-0.7-0.4-0.7c-0.1,0-0.3-0.1-0.5-0.1c-0.1,0-0.2,0-0.2-0.1
		c0-0.1,0.1-0.1,0.3-0.1c0.5,0,1.3,0,1.7,0c0.3,0,1.1,0,1.6,0c0.2,0,0.3,0,0.3,0.1c0,0.1-0.1,0.1-0.2,0.1c-0.1,0-0.2,0-0.4,0
		c-0.4,0.1-0.5,0.3-0.5,0.7c0,0.4,0,0.8,0,2.8v2.3c0,1.3,0,2.3,0.1,2.8c0,0.4,0.1,0.6,0.5,0.6c0.2,0,0.5,0.1,0.7,0.1
		c0.1,0,0.2,0,0.2,0.1c0,0.1-0.1,0.1-0.2,0.1c-0.9,0-1.7,0-2,0c-0.3,0-1.1,0-1.6,0c-0.2,0-0.3,0-0.3-0.1c0-0.1,0.1-0.1,0.2-0.1
		c0.2,0,0.4,0,0.5-0.1c0.3-0.1,0.3-0.3,0.4-0.7c0.1-0.5,0.1-1.6,0.1-2.8V25.2z"/>
	<path class="st0" d="M151.7,29.5c0,1,0.2,1.4,0.5,1.4c0.2,0.1,0.5,0.1,0.7,0.1c0.1,0,0.2,0,0.2,0.1c0,0.1-0.1,0.1-0.3,0.1
		c-0.8,0-1.4,0-1.6,0c-0.1,0-0.7,0-1.4,0c-0.2,0-0.3,0-0.3-0.1c0-0.1,0.1-0.1,0.2-0.1c0.2,0,0.4,0,0.6-0.1c0.3-0.1,0.4-0.5,0.4-1.6
		l0.1-7.7c0-0.3,0-0.4,0.2-0.4c0.1,0,0.3,0.2,0.5,0.4c0.2,0.2,2.1,2.3,4,4.2c0.9,0.9,2.6,2.8,2.9,3h0.1l-0.1-5.8
		c0-0.8-0.1-1-0.4-1.2c-0.2-0.1-0.5-0.1-0.7-0.1c-0.2,0-0.2,0-0.2-0.1c0-0.1,0.1-0.1,0.3-0.1c0.7,0,1.3,0,1.6,0c0.1,0,0.6,0,1.3,0
		c0.2,0,0.3,0,0.3,0.1c0,0.1-0.1,0.1-0.2,0.1c-0.1,0-0.2,0-0.4,0c-0.4,0.1-0.5,0.4-0.5,1.1l-0.1,8.2c0,0.3-0.1,0.4-0.2,0.4
		c-0.1,0-0.3-0.1-0.4-0.3c-0.8-0.8-2.5-2.5-3.8-3.8c-1.4-1.4-2.9-3-3.1-3.3h0L151.7,29.5z"/>
	<path class="st0" d="M162.3,25.2c0-2,0-2.3,0-2.8c0-0.4-0.1-0.6-0.6-0.7c-0.1,0-0.3,0-0.5,0c-0.1,0-0.2,0-0.2-0.1
		c0-0.1,0.1-0.1,0.3-0.1c0.7,0,1.5,0,1.9,0c0.3,0,1.1,0,1.6,0c0.2,0,0.3,0,0.3,0.1c0,0.1-0.1,0.1-0.2,0.1c-0.1,0-0.2,0-0.4,0
		c-0.4,0.1-0.5,0.3-0.5,0.7c0,0.4,0,0.8,0,2.8V27c0,1.9,0.4,2.7,1,3.2c0.6,0.5,1.2,0.5,1.6,0.5c0.6,0,1.3-0.2,1.8-0.7
		c0.7-0.7,0.8-1.9,0.8-3.2v-1.6c0-2,0-2.3,0-2.8c0-0.4-0.1-0.6-0.6-0.7c-0.1,0-0.3,0-0.5,0c-0.1,0-0.2,0-0.2-0.1
		c0-0.1,0.1-0.1,0.3-0.1c0.7,0,1.5,0,1.5,0c0.2,0,1,0,1.5,0c0.2,0,0.3,0,0.3,0.1c0,0.1-0.1,0.1-0.2,0.1c-0.1,0-0.2,0-0.4,0
		c-0.4,0.1-0.5,0.3-0.5,0.7c0,0.4,0,0.8,0,2.8v1.4c0,1.4-0.1,3-1.2,3.9c-0.9,0.8-1.9,0.9-2.7,0.9c-0.7,0-1.9,0-2.9-0.9
		c-0.7-0.6-1.2-1.6-1.2-3.4V25.2z"/>
	<path class="st0" d="M173.3,25.2c0-2,0-2.3,0-2.8c0-0.4-0.2-0.7-0.4-0.7c-0.1,0-0.3-0.1-0.5-0.1c-0.1,0-0.2,0-0.2-0.1
		c0-0.1,0.1-0.1,0.3-0.1c0.5,0,1.3,0,1.7,0c0.3,0,1.1,0,1.6,0c0.2,0,0.3,0,0.3,0.1c0,0.1-0.1,0.1-0.2,0.1c-0.1,0-0.2,0-0.4,0
		c-0.4,0.1-0.5,0.3-0.5,0.7c0,0.4,0,0.8,0,2.8v2.3c0,1.3,0,2.3,0.1,2.8c0,0.4,0.1,0.6,0.5,0.6c0.2,0,0.5,0.1,0.7,0.1
		c0.1,0,0.2,0,0.2,0.1c0,0.1-0.1,0.1-0.2,0.1c-0.9,0-1.7,0-2,0c-0.3,0-1.1,0-1.6,0c-0.2,0-0.3,0-0.3-0.1c0-0.1,0.1-0.1,0.2-0.1
		c0.2,0,0.4,0,0.5-0.1c0.3-0.1,0.3-0.3,0.4-0.7c0.1-0.5,0.1-1.6,0.1-2.8V25.2z"/>
	<path class="st0" d="M179.3,29.5c0,1,0.2,1.4,0.5,1.4c0.2,0.1,0.5,0.1,0.7,0.1c0.1,0,0.2,0,0.2,0.1c0,0.1-0.1,0.1-0.3,0.1
		c-0.8,0-1.4,0-1.6,0c-0.1,0-0.7,0-1.4,0c-0.2,0-0.3,0-0.3-0.1c0-0.1,0.1-0.1,0.2-0.1c0.2,0,0.4,0,0.6-0.1c0.3-0.1,0.4-0.5,0.4-1.6
		l0.1-7.7c0-0.3,0-0.4,0.2-0.4c0.1,0,0.3,0.2,0.5,0.4c0.2,0.2,2.1,2.3,4,4.2c0.9,0.9,2.6,2.8,2.9,3h0.1l-0.1-5.8
		c0-0.8-0.1-1-0.4-1.2c-0.2-0.1-0.5-0.1-0.7-0.1c-0.2,0-0.2,0-0.2-0.1c0-0.1,0.1-0.1,0.3-0.1c0.7,0,1.3,0,1.6,0c0.1,0,0.6,0,1.3,0
		c0.2,0,0.3,0,0.3,0.1c0,0.1-0.1,0.1-0.2,0.1c-0.1,0-0.2,0-0.4,0c-0.4,0.1-0.5,0.4-0.5,1.1l-0.1,8.2c0,0.3-0.1,0.4-0.2,0.4
		c-0.1,0-0.3-0.1-0.4-0.3c-0.8-0.8-2.5-2.5-3.8-3.8c-1.4-1.4-2.9-3-3.1-3.3h0L179.3,29.5z"/>
	<path class="st0" d="M197.7,30.4c0,0.4,0,0.4-0.2,0.5c-0.8,0.4-2.1,0.6-3.1,0.6c-3.2,0-6-1.5-6-5.1c0-2.1,1.1-3.5,2.3-4.3
		c1.2-0.8,2.4-0.8,3.5-0.8c0.9,0,2,0.2,2.3,0.2c0.3,0.1,0.7,0.1,1,0.1c0.2,0,0.2,0.1,0.2,0.2c0,0.1-0.1,0.5-0.1,2.1
		c0,0.2,0,0.3-0.1,0.3c-0.1,0-0.1-0.1-0.1-0.2c0-0.3-0.1-0.7-0.4-1.1c-0.4-0.4-1.4-1-2.9-1c-0.7,0-1.7,0.1-2.6,0.8
		c-0.7,0.6-1.2,1.6-1.2,3.2c0,2.8,1.8,4.9,4.5,4.9c0.3,0,0.8,0,1.1-0.1c0.2-0.1,0.2-0.3,0.2-0.5v-1.2c0-0.6,0-1.1,0-1.5
		c0-0.4-0.1-0.6-0.6-0.7c-0.1,0-0.3,0-0.5,0c-0.1,0-0.2,0-0.2-0.1c0-0.1,0.1-0.1,0.3-0.1c0.7,0,1.5,0,1.9,0c0.4,0,1.1,0,1.5,0
		c0.2,0,0.3,0,0.3,0.1c0,0.1-0.1,0.1-0.2,0.1c-0.1,0-0.2,0-0.4,0c-0.4,0.1-0.5,0.3-0.5,0.7c0,0.4,0,0.9,0,1.6V30.4z"/>
	<path class="st0" d="M91.2,39.2c0-2,0-2.3,0-2.8c0-0.4-0.1-0.7-0.6-0.7c-0.1,0-0.3,0-0.5,0c-0.1,0-0.2,0-0.2-0.1
		c0-0.1,0.1-0.1,0.3-0.1c0.4,0,0.7,0,1.1,0c0.3,0,0.6,0,0.8,0c0.4,0,3,0,3.2,0c0.2,0,0.5-0.1,0.6-0.1c0.1,0,0.1-0.1,0.2-0.1
		c0.1,0,0.1,0.1,0.1,0.1c0,0.1-0.1,0.2-0.1,0.8c0,0.1,0,0.7-0.1,0.9c0,0.1,0,0.1-0.1,0.1c-0.1,0-0.1-0.1-0.1-0.2
		c0-0.1,0-0.3-0.1-0.5c-0.1-0.2-0.2-0.4-0.9-0.5c-0.2,0-1.6-0.1-1.8-0.1c-0.1,0-0.1,0-0.1,0.1v3.3c0,0.1,0,0.1,0.1,0.1
		c0.3,0,1.8,0,2.1,0c0.3,0,0.5-0.1,0.6-0.2c0.1-0.1,0.1-0.2,0.2-0.2c0.1,0,0.1,0,0.1,0.1c0,0.1-0.1,0.3-0.1,0.9
		c0,0.3-0.1,0.8-0.1,0.9c0,0.1,0,0.2-0.1,0.2c-0.1,0-0.1-0.1-0.1-0.1c0-0.1,0-0.3-0.1-0.5c-0.1-0.3-0.2-0.5-0.7-0.5
		c-0.2,0-1.5,0-1.8,0c-0.1,0-0.1,0.1-0.1,0.1v1c0,0.4,0,1.6,0,2c0,0.9,0.2,1.1,1.6,1.1c0.3,0,0.9,0,1.2-0.2c0.3-0.2,0.5-0.4,0.6-1
		c0-0.1,0.1-0.2,0.1-0.2c0.1,0,0.1,0.1,0.1,0.2c0,0.3-0.1,1.2-0.2,1.4c-0.1,0.3-0.2,0.3-0.7,0.3c-1,0-1.7,0-2.2,0c-0.6,0-1,0-1.4,0
		c-0.1,0-0.4,0-0.7,0c-0.3,0-0.6,0-0.9,0c-0.2,0-0.3,0-0.3-0.1c0-0.1,0.1-0.1,0.2-0.1c0.2,0,0.4,0,0.5-0.1c0.3-0.1,0.3-0.3,0.4-0.7
		c0.1-0.5,0.1-1.6,0.1-2.8V39.2z"/>
	<path class="st0" d="M98.5,39.2c0-2,0-2.3,0-2.8c0-0.4-0.1-0.7-0.6-0.7c-0.1,0-0.3,0-0.5,0c-0.1,0-0.2,0-0.2-0.1
		c0-0.1,0.1-0.1,0.3-0.1c0.7,0,1.5,0,1.9,0c0.4,0,1.2,0,2,0c1.6,0,3.8,0,5.2,1.5c0.6,0.7,1.3,1.8,1.3,3.3c0,1.6-0.7,2.9-1.4,3.6
		c-0.6,0.6-2,1.5-4.4,1.5c-0.5,0-1,0-1.5-0.1c-0.5,0-0.9-0.1-1.3-0.1c-0.1,0-0.4,0-0.7,0c-0.3,0-0.6,0-0.9,0c-0.2,0-0.3,0-0.3-0.1
		c0-0.1,0.1-0.1,0.2-0.1c0.2,0,0.4,0,0.5-0.1c0.3-0.1,0.3-0.3,0.4-0.7c0.1-0.5,0.1-1.6,0.1-2.8V39.2z M100.1,40.6c0,1.4,0,2.4,0,2.6
		c0,0.3,0,0.8,0.1,1c0.2,0.2,0.7,0.5,1.7,0.5c1.3,0,2.2-0.3,3-0.9c0.8-0.7,1.1-1.9,1.1-3.2c0-1.7-0.7-2.7-1.2-3.2
		c-1.2-1.1-2.7-1.3-3.7-1.3c-0.3,0-0.7,0-0.8,0.1c-0.1,0.1-0.2,0.1-0.2,0.3c0,0.4,0,1.6,0,2.6V40.6z"/>
	<path class="st0" d="M109.1,39.2c0-2,0-2.3,0-2.8c0-0.4-0.1-0.7-0.6-0.7c-0.1,0-0.3,0-0.5,0c-0.1,0-0.2,0-0.2-0.1
		c0-0.1,0.1-0.1,0.3-0.1c0.7,0,1.5,0,1.9,0c0.3,0,1.1,0,1.6,0c0.2,0,0.3,0,0.3,0.1c0,0.1-0.1,0.1-0.2,0.1c-0.1,0-0.2,0-0.4,0
		c-0.4,0.1-0.5,0.3-0.5,0.7c0,0.4,0,0.8,0,2.8V41c0,1.9,0.4,2.7,1,3.2c0.6,0.5,1.2,0.5,1.6,0.5c0.6,0,1.3-0.2,1.8-0.7
		c0.7-0.7,0.8-1.9,0.8-3.2v-1.6c0-2,0-2.3,0-2.8c0-0.4-0.1-0.7-0.6-0.7c-0.1,0-0.3,0-0.5,0c-0.1,0-0.2,0-0.2-0.1
		c0-0.1,0.1-0.1,0.3-0.1c0.7,0,1.5,0,1.5,0c0.2,0,1,0,1.5,0c0.2,0,0.3,0,0.3,0.1c0,0.1-0.1,0.1-0.2,0.1c-0.1,0-0.2,0-0.4,0
		c-0.4,0.1-0.5,0.3-0.5,0.7c0,0.4,0,0.8,0,2.8v1.4c0,1.4-0.1,3-1.2,3.9c-0.9,0.8-1.9,0.9-2.7,0.9c-0.7,0-1.9,0-2.9-0.9
		c-0.7-0.6-1.2-1.6-1.2-3.4V39.2z"/>
	<path class="st0" d="M119.9,44c-1.3-1.1-1.6-2.6-1.6-3.8c0-0.9,0.3-2.4,1.5-3.6c0.9-0.9,2.2-1.4,4.1-1.4c0.8,0,1.3,0.1,1.9,0.1
		c0.5,0.1,0.9,0.2,1.3,0.2c0.1,0,0.2,0.1,0.2,0.2c0,0.1,0,0.3-0.1,0.7c0,0.4,0,1.1,0,1.4c0,0.2,0,0.3-0.2,0.3
		c-0.1,0-0.1-0.1-0.1-0.3c0-0.4-0.2-0.9-0.5-1.2c-0.4-0.5-1.4-0.8-2.6-0.8c-1.1,0-1.9,0.3-2.4,0.8c-0.9,0.9-1.2,2.1-1.2,3.4
		c0,3.1,2.4,4.6,4.1,4.6c1.2,0,1.9-0.1,2.4-0.7c0.2-0.2,0.4-0.6,0.4-0.9c0-0.2,0.1-0.3,0.2-0.3c0.1,0,0.1,0.1,0.1,0.2
		c0,0.2-0.2,1.3-0.3,1.7c-0.1,0.2-0.1,0.3-0.3,0.4c-0.5,0.2-1.5,0.3-2.3,0.3C122.6,45.4,121.1,45,119.9,44z"/>
	<path class="st0" d="M130.7,41.8c-0.1,0-0.1,0-0.1,0.1l-0.7,1.9c-0.1,0.3-0.2,0.6-0.2,0.8c0,0.2,0.1,0.4,0.5,0.4h0.2
		c0.2,0,0.2,0,0.2,0.1c0,0.1-0.1,0.1-0.2,0.1c-0.4,0-1,0-1.4,0c-0.1,0-0.9,0-1.5,0c-0.2,0-0.2,0-0.2-0.1c0-0.1,0.1-0.1,0.2-0.1
		c0.1,0,0.3,0,0.4,0c0.6-0.1,0.8-0.5,1.1-1.2l3.3-8.2c0.2-0.4,0.2-0.5,0.4-0.5c0.1,0,0.2,0.1,0.3,0.4c0.3,0.7,2.4,6,3.2,8
		c0.5,1.2,0.9,1.4,1.1,1.4c0.2,0,0.4,0.1,0.5,0.1c0.1,0,0.2,0,0.2,0.1c0,0.1-0.1,0.1-0.6,0.1c-0.5,0-1.4,0-2.5,0
		c-0.2,0-0.4,0-0.4-0.1c0-0.1,0.1-0.1,0.2-0.1c0.1,0,0.2-0.1,0.1-0.3l-1-2.8c0-0.1-0.1-0.1-0.1-0.1H130.7z M133.3,41.2
		C133.4,41.2,133.4,41.2,133.3,41.2l-1.1-3.3c0-0.1,0-0.1-0.1-0.1c0,0-0.1,0.1-0.1,0.1l-1.2,3.2c0,0.1,0,0.1,0.1,0.1H133.3z"/>
	<path class="st0" d="M140,36.1l-1.9,0.1c-0.8,0-1.1,0.1-1.3,0.4c-0.1,0.2-0.2,0.4-0.2,0.5c0,0.1-0.1,0.2-0.1,0.2
		c-0.1,0-0.1-0.1-0.1-0.2c0-0.2,0.2-1.4,0.3-1.5c0-0.2,0.1-0.2,0.2-0.2c0.1,0,0.2,0.1,0.6,0.2c0.4,0,0.9,0.1,1.3,0.1h5.1
		c0.4,0,0.7,0,0.9-0.1c0.2,0,0.3-0.1,0.4-0.1c0.1,0,0.1,0.1,0.1,0.3c0,0.3,0,1.2,0,1.5c0,0.1,0,0.2-0.1,0.2c-0.1,0-0.1-0.1-0.1-0.3
		l0-0.1c0-0.3-0.4-0.7-1.5-0.7l-1.6,0v5.3c0,1.2,0,2.2,0.1,2.8c0,0.4,0.1,0.7,0.5,0.7c0.2,0,0.5,0.1,0.7,0.1c0.1,0,0.2,0,0.2,0.1
		c0,0.1-0.1,0.1-0.2,0.1c-0.9,0-1.7,0-2,0c-0.3,0-1.1,0-1.6,0c-0.2,0-0.3,0-0.3-0.1c0-0.1,0.1-0.1,0.2-0.1c0.2,0,0.4,0,0.5-0.1
		c0.3-0.1,0.3-0.3,0.4-0.7c0.1-0.5,0.1-1.6,0.1-2.8V36.1z"/>
	<path class="st0" d="M147,39.2c0-2,0-2.3,0-2.8c0-0.4-0.2-0.7-0.4-0.7c-0.1,0-0.3-0.1-0.5-0.1c-0.1,0-0.2,0-0.2-0.1
		c0-0.1,0.1-0.1,0.3-0.1c0.5,0,1.3,0,1.7,0c0.3,0,1.1,0,1.6,0c0.2,0,0.3,0,0.3,0.1c0,0.1-0.1,0.1-0.2,0.1c-0.1,0-0.2,0-0.4,0
		c-0.4,0.1-0.5,0.3-0.5,0.7c0,0.4,0,0.8,0,2.8v2.3c0,1.3,0,2.3,0.1,2.8c0,0.4,0.1,0.6,0.5,0.6c0.2,0,0.5,0.1,0.7,0.1
		c0.1,0,0.2,0,0.2,0.1c0,0.1-0.1,0.1-0.2,0.1c-0.9,0-1.7,0-2,0c-0.3,0-1.1,0-1.6,0c-0.2,0-0.3,0-0.3-0.1c0-0.1,0.1-0.1,0.2-0.1
		c0.2,0,0.4,0,0.5-0.1c0.3-0.1,0.3-0.3,0.4-0.7c0.1-0.5,0.1-1.6,0.1-2.8V39.2z"/>
	<path class="st0" d="M150.3,40.3c0-2.2,1.5-5.1,5.4-5.1c3.2,0,5.3,1.9,5.3,4.9c0,3-2.1,5.3-5.4,5.3
		C151.8,45.4,150.3,42.6,150.3,40.3z M159.1,40.6c0-2.9-1.7-4.7-3.8-4.7c-1.5,0-3.2,0.8-3.2,4.1c0,2.7,1.5,4.8,4,4.8
		C157,44.8,159.1,44.3,159.1,40.6z"/>
	<path class="st0" d="M163.5,43.5c0,1,0.2,1.4,0.5,1.4c0.2,0.1,0.5,0.1,0.7,0.1c0.1,0,0.2,0,0.2,0.1c0,0.1-0.1,0.1-0.3,0.1
		c-0.8,0-1.4,0-1.6,0c-0.1,0-0.7,0-1.4,0c-0.2,0-0.3,0-0.3-0.1c0-0.1,0.1-0.1,0.2-0.1c0.2,0,0.4,0,0.6-0.1c0.3-0.1,0.4-0.5,0.4-1.6
		l0.1-7.7c0-0.3,0-0.4,0.2-0.4c0.1,0,0.3,0.2,0.5,0.4c0.2,0.2,2.1,2.3,4,4.2c0.9,0.9,2.6,2.8,2.9,3h0.1l-0.1-5.8
		c0-0.8-0.1-1-0.4-1.2c-0.2-0.1-0.5-0.1-0.7-0.1c-0.2,0-0.2,0-0.2-0.1c0-0.1,0.1-0.1,0.3-0.1c0.7,0,1.3,0,1.6,0c0.1,0,0.6,0,1.3,0
		c0.2,0,0.3,0,0.3,0.1c0,0.1-0.1,0.1-0.2,0.1c-0.1,0-0.2,0-0.4,0c-0.4,0.1-0.5,0.4-0.5,1.1l-0.1,8.2c0,0.3-0.1,0.4-0.2,0.4
		c-0.1,0-0.3-0.1-0.4-0.3c-0.8-0.8-2.5-2.5-3.8-3.8c-1.4-1.4-2.9-3-3.1-3.3h0L163.5,43.5z"/>
</g>
<g>
	<path class="st0" d="M222.6,51.8H88c-0.2,0-0.4-0.2-0.4-0.4c0-0.2,0.2-0.4,0.4-0.4h134.6c0.2,0,0.4,0.2,0.4,0.4
		C223.1,51.6,222.9,51.8,222.6,51.8L222.6,51.8z"/>
</g>
<g>
	<g>
		<path class="st0" d="M96.8,59.1h-3v6.7h-2v-6.7h-3v-1.5h8V59.1z"/>
		<path class="st0" d="M99.3,61.1L99.3,61.1c0.5-0.6,1.1-0.9,1.8-0.9c1,0,2,0.6,2,2.1v3.5h-1.7v-3.2c0-0.8-0.4-1.2-0.9-1.2
			c-0.4,0-0.8,0.3-1.2,0.8v3.5h-1.7v-8.2h1.7V61.1z"/>
		<path class="st0" d="M109.7,65.2c-1,0.7-2,0.7-2.5,0.7c-1.9,0-3.2-1.1-3.2-2.9c0-1.7,1.2-2.9,2.9-2.9c1.6,0,2.9,1.1,2.9,3.2h-4
			c0.1,1,0.7,1.6,1.8,1.6c0.7,0,1.2-0.2,2.1-0.8V65.2z M108.2,62.4c-0.1-0.8-0.5-1.2-1.2-1.2c-0.7,0-1.1,0.4-1.2,1.2H108.2z"/>
		<path class="st0" d="M122,57.6v4.6c0,2.7-1.8,3.6-4.1,3.6c-2.4,0-4.1-1.1-4.1-3.6v-4.7h2v4.7c0,1.2,0.9,1.9,2,1.9
			c1.1,0,2.1-0.6,2.1-2v-4.6H122z"/>
		<path class="st0" d="M125.1,61c0.6-0.6,1.1-0.9,1.8-0.9c0.9,0,2,0.5,2,2.1v3.5h-1.7v-3.4c0-0.8-0.4-1.1-0.9-1.1
			c-0.4,0-0.8,0.2-1.2,0.9v3.6h-1.7v-5.5h1.7V61z"/>
		<path class="st0" d="M132,58.5c0,0.5-0.4,1-1,1c-0.5,0-1-0.4-1-1c0-0.5,0.4-1,1-1C131.5,57.5,132,57.9,132,58.5z M131.9,65.8h-1.7
			v-5.5h1.7V65.8z"/>
		<path class="st0" d="M132.4,60.3h1.9l1.2,3l1.2-3h1.8l-2.5,5.6h-1L132.4,60.3z"/>
		<path class="st0" d="M144.2,65.2c-1,0.7-2,0.7-2.5,0.7c-1.9,0-3.2-1.1-3.2-2.9c0-1.7,1.2-2.9,2.9-2.9c1.6,0,2.9,1.1,2.9,3.2h-4
			c0.1,1,0.7,1.6,1.8,1.6c0.7,0,1.2-0.2,2.1-0.8V65.2z M142.7,62.4c-0.1-0.8-0.5-1.2-1.2-1.2c-0.7,0-1.1,0.4-1.2,1.2H142.7z"/>
		<path class="st0" d="M147,61.8L147,61.8c0.5-1.2,1.1-1.7,1.8-1.7c0.3,0,0.6,0.1,1.2,0.5l-0.5,1.5c-0.5-0.3-0.8-0.4-1-0.4
			c-0.6,0-1,0.6-1.4,1.6v2.4h-1.7v-5.5h1.7V61.8z"/>
		<path class="st0" d="M154.3,61.8c-0.8-0.5-1.5-0.6-1.8-0.6c-0.2,0-0.6,0-0.6,0.4c0,0.6,2.7,0.6,2.7,2.5c0,1.2-0.8,1.8-2.3,1.8
			c-0.9,0-1.7-0.3-2-0.4v-1.2c0.6,0.2,1.1,0.5,1.8,0.5c0.5,0,0.8-0.2,0.8-0.4c0-0.8-2.7-0.7-2.7-2.5c0-1,0.9-1.7,2.3-1.7
			c0.7,0,1.2,0.1,1.8,0.4V61.8z"/>
		<path class="st0" d="M157.3,58.5c0,0.5-0.4,1-1,1c-0.5,0-1-0.4-1-1c0-0.5,0.4-1,1-1C156.8,57.5,157.3,57.9,157.3,58.5z
			 M157.2,65.8h-1.7v-5.5h1.7V65.8z"/>
		<path class="st0" d="M162.4,61.4h-2v2.3c0,0.5,0.3,0.9,0.9,0.9c0.4,0,0.7-0.1,1.2-0.3v1.3c-0.6,0.3-1.1,0.3-1.6,0.3
			c-1.2,0-2.1-0.5-2.1-2.1v-2.4h-0.8v-0.3l2.3-2.6h0.2v1.7h2V61.4z"/>
		<path class="st0" d="M165,68.4h-1.8l1.6-3.5l-2.2-4.6h1.9l1.2,2.8l1.2-2.8h1.8L165,68.4z"/>
		<path class="st0" d="M175.1,65.9c-1.8,0-3.1-1.1-3.1-2.9c0-1.9,1.5-2.9,3.1-2.9c1.4,0,3.1,0.8,3.1,2.9
			C178.2,65.2,176.3,65.9,175.1,65.9z M175.1,61.2c-0.8,0-1.3,0.6-1.3,1.8c0,1.4,0.6,1.8,1.3,1.8c0.8,0,1.2-0.7,1.2-1.9
			C176.4,61.9,176,61.2,175.1,61.2z"/>
		<path class="st0" d="M181.9,60.3v1.2h-0.8v4.3h-1.7v-4.3h-0.8v-1.2h0.8V60c0-1.6,1-2.5,2.4-2.5c0.3,0,0.8,0.1,1.1,0.1V59
			c-0.5-0.1-0.6-0.1-0.8-0.1c-0.5,0-1,0.2-1,1v0.3H181.9z"/>
		<path class="st0" d="M189.9,61.4l3.6,4.3H191l-3.2-3.8v3.8h-2v-8.2h2v3.7h0l2.6-3.7h2.2L189.9,61.4z"/>
		<path class="st0" d="M199.7,65.4c-0.5,0.3-1.2,0.5-1.6,0.5c-0.6,0-0.9-0.2-1-0.6c-0.7,0.5-1.2,0.6-1.8,0.6c-0.9,0-1.5-0.7-1.5-1.4
			c0-1.3,1-1.6,3.3-2.3c0-0.5-0.2-0.9-1-0.9c-0.7,0-1.5,0.4-2,0.9v-1.4c0.7-0.4,1.5-0.7,2.4-0.7c1.4,0,2.3,0.5,2.3,1.7v2.5
			c0,0.3,0.1,0.4,0.3,0.4c0.1,0,0.3,0,0.7-0.3V65.4z M197,63.1c-1,0.4-1.5,0.6-1.5,1.2c0,0.3,0.3,0.6,0.6,0.6c0.3,0,0.7-0.2,1-0.4
			V63.1z"/>
		<path class="st0" d="M202,61c0.6-0.6,1.1-0.9,1.8-0.9c0.9,0,2,0.5,2,2.1v3.5h-1.7v-3.4c0-0.8-0.4-1.1-0.9-1.1
			c-0.4,0-0.8,0.2-1.2,0.9v3.6h-1.7v-5.5h1.7V61z"/>
		<path class="st0" d="M210.9,61.8c-0.8-0.5-1.5-0.6-1.8-0.6c-0.2,0-0.6,0-0.6,0.4c0,0.6,2.7,0.6,2.7,2.5c0,1.2-0.8,1.8-2.3,1.8
			c-0.9,0-1.7-0.3-2-0.4v-1.2c0.6,0.2,1.1,0.5,1.8,0.5c0.5,0,0.8-0.2,0.8-0.4c0-0.8-2.7-0.7-2.7-2.5c0-1,0.9-1.7,2.3-1.7
			c0.7,0,1.2,0.1,1.8,0.4V61.8z"/>
		<path class="st0" d="M217.7,65.4c-0.5,0.3-1.2,0.5-1.6,0.5c-0.6,0-0.9-0.2-1-0.6c-0.7,0.5-1.2,0.6-1.8,0.6c-0.9,0-1.5-0.7-1.5-1.4
			c0-1.3,1-1.6,3.3-2.3c0-0.5-0.2-0.9-1-0.9c-0.7,0-1.5,0.4-2,0.9v-1.4c0.7-0.4,1.5-0.7,2.4-0.7c1.4,0,2.3,0.5,2.3,1.7v2.5
			c0,0.3,0.1,0.4,0.3,0.4c0.1,0,0.3,0,0.7-0.3V65.4z M215,63.1c-1,0.4-1.5,0.6-1.5,1.2c0,0.3,0.3,0.6,0.6,0.6c0.3,0,0.7-0.2,1-0.4
			V63.1z"/>
		<path class="st0" d="M222.1,61.8c-0.8-0.5-1.5-0.6-1.8-0.6c-0.2,0-0.6,0-0.6,0.4c0,0.6,2.7,0.6,2.7,2.5c0,1.2-0.8,1.8-2.3,1.8
			c-0.9,0-1.7-0.3-2-0.4v-1.2c0.6,0.2,1.1,0.5,1.8,0.5c0.5,0,0.8-0.2,0.8-0.4c0-0.8-2.7-0.7-2.7-2.5c0-1,0.9-1.7,2.3-1.7
			c0.7,0,1.2,0.1,1.8,0.4V61.8z"/>
	</g>
</g>
<path class="st0" d="M33.9,13.5C32.1,15.2,23.3,24,21.3,26.1l16.8,18l6.8,7.4c2.4,2.3,5.1,4.7,8,5.8c1.8,0.7,3.2,1.1,3.9,1.1
	c0.4,0,0.8,0.1,0.8,0.5c0,0.4-0.3,0.6-1.4,0.6h-5.1c-1.8,0-2.8,0-4-0.1c-3.2-0.3-4.7-1.6-7.2-3.8l-23-25.4l-0.6-0.9h-0.3v5.3
	c0,5.4,0,10,0.2,12.5c0.1,1.6,0.6,2.9,2.1,3.2c0.8,0.1,2.1,0.2,2.9,0.2c0.5,0,0.8,0.2,0.8,0.5c0,0.4-0.5,0.6-1.1,0.6
	c-3.3,0-7-0.2-8.4-0.2c-1.3,0-5,0.2-7.4,0.2c-0.8,0-1.2-0.2-1.2-0.6c0-0.3,0.2-0.5,0.9-0.5c0.9,0,1.6-0.1,2.1-0.2
	c1.2-0.2,1.5-1.5,1.7-3.2c0.3-2.5,0.3-7.1,0.3-12.5V24.4c0-8.9,0-10.5-0.1-12.4C8.5,10,8,9,6.1,8.6C5.6,8.5,4.6,8.4,3.8,8.4
	c-0.6,0-1-0.1-1-0.5c0-0.4,0.4-0.5,1.3-0.5c3.1,0,6.8,0.2,8.2,0.2c1.4,0,5.1-0.2,7.1-0.2c0.8,0,1.2,0.1,1.2,0.5
	c0,0.4-0.3,0.5-0.8,0.5c-0.6,0-0.9,0.1-1.6,0.2c-1.6,0.3-2,1.3-2.2,3.3c-0.1,1.9-0.1,3.5-0.1,12.4v2.6h0.3
	c2-2.2,10.5-10.9,12.2-12.9c1.6-1.9,2.9-3.4,2.9-4.4c0-0.6-0.2-1.1-0.8-1.2c-0.5-0.1-0.8-0.2-0.8-0.6c0-0.4,0.3-0.5,0.9-0.5
	c1.2,0,4.4,0.2,6,0.2l11.2,0c1.4,0,5.1-0.2,7.2-0.2c0.9,0,1.3,0.1,1.3,0.5c0,0.4-0.4,0.5-0.9,0.5c-0.6,0-1,0.1-1.7,0.2
	c-1.6,0.3-2,1.3-2.2,3.3c-0.1,1.9-0.1,3.5-0.1,12.4v8.2c0,8.5,1.7,12,4.5,14.3c2.6,2.2,5.3,2.4,7.3,2.4c2.6,0,5.7-0.8,8-3.1
	c3.2-3.2,3.4-8.5,3.4-14.5v-7.3c0-8.9,0-10.5-0.1-12.4C74.5,10,74,9,72.1,8.6c-0.5-0.1-1.5-0.2-2.1-0.2c-0.6,0-1-0.1-1-0.5
	c0-0.4,0.4-0.5,1.2-0.5c3,0,6.7,0.2,6.7,0.2c0.7,0,4.4-0.2,6.6-0.2c0.8,0,1.2,0.1,1.2,0.5c0,0.4-0.4,0.5-1,0.5c-0.6,0-1,0.1-1.7,0.2
	c-1.6,0.3-2,1.3-2.2,3.3c-0.1,1.9-0.1,3.5-0.1,12.4v6.2c0,6.5-0.6,13.4-5.5,17.6c-4.1,3.6-8.3,4.2-12.1,4.2c-3.1,0-8.7-0.2-12.9-4
	c-3-2.7-5.2-7-5.2-15.5v-8.5c0-8.9,0-10.5-0.1-12.4c-0.1-2-0.7-3.3-2.5-3.3C39.6,8.6,37,10.7,33.9,13.5z"/>
</svg>
