<svg id="Layer_1" xmlns="http://www.w3.org/2000/svg" viewBox="0 0 720 228.5"><path fill="#38bcdb" d="M279.6 9.5L156.2 223.2 32.8 9.5z"/><path fill="#2e91a3" d="M297.5 94.4L156.2 223.2V9.5z"/><path fill="#6ccce6" d="M14.2 94.4L156.5 9.5v213.7z"/><path d="M208.6 86.2h-37v76.3h-30.3V86.2h-37V61.7h104.3v24.5zm129.2-11.5h-21.3V64.6h54.3v10.1h-21.3v54.7h-11.8V74.7zm41.6-10.1h20.9c7 0 10.2.5 13.1 1.8 6.5 2.9 10.6 9.1 10.6 17.7 0 7.8-4.1 15-11 17.7v.2s.9.9 2.2 3.2l13.3 24.2h-13.1l-12.9-24.2h-11.3v24.2h-11.8V64.6zM401.8 95c6.3 0 10.2-3.7 10.2-10.2 0-6.2-2.6-10-11.9-10h-8.9V95h10.6zm37.7-30.4h11.8v64.8h-11.8V64.6zm28.2 0h11.8v54.7h28v10.1h-39.8V64.6zm77.1-1.1c19.1 0 33.5 14.5 33.5 33 0 19.1-14.4 34-33.5 34s-33.5-14.9-33.5-34c0-18.5 14.4-33 33.5-33zm0 56.2c11.9 0 21.4-9.9 21.4-23.2 0-12.8-9.5-22.3-21.4-22.3-11.9 0-21.4 9.5-21.4 22.3 0 13.4 9.5 23.2 21.4 23.2zm74.4-56.2c15.9 0 24.1 8.2 24.1 8.2l-5.8 8.8s-6.9-6.2-17.2-6.2c-14.5 0-22.3 10-22.3 22.3 0 14.1 9.6 23.2 21.7 23.2 9.8 0 16.2-6.8 16.2-6.8v-7.6H626V95.3h20.5v34.1h-10v-3.1c0-1.4.1-2.7.1-2.7h-.2s-6.8 6.9-18.8 6.9c-17.1 0-31.8-13.2-31.8-33.6 0-18.8 14.2-33.4 33.4-33.4zm53.6 38.8l-21.5-37.7h13.3l10.1 19.1c2.1 4 3.8 8.8 3.9 8.7h.2s1.8-4.7 3.9-8.7l10-19.1H706l-21.5 37.7v27.1h-11.8v-27.1zm-347.5 40.6h15.1v3.9h-10.5v6.6h8.5v3.9h-8.5v6.8H341v3.9h-15.6v-25.1zm20.4 0h8.6c7.8 0 12.8 4.6 12.8 12.6 0 7.9-5.1 12.6-12.8 12.6h-8.6v-25.2zm8.3 21.3c5.1 0 8.4-3 8.4-8.7 0-5.6-3.3-8.6-8.4-8.6h-3.8v17.3h3.8zm17.5-21.3h4.6V159c0 3.4 2.2 5.3 5.6 5.3s5.6-1.9 5.6-5.3v-16.1h4.6V159c0 5.6-4.1 9.5-10.1 9.5-6.1 0-10.2-3.8-10.2-9.5v-16.1zm37.6-.4c6.1 0 9.3 3.4 9.3 3.4l-2.2 3.4s-2.9-2.7-6.9-2.7c-5.3 0-8.4 4-8.4 8.7 0 4.8 3.2 9 8.5 9 4.4 0 7.3-3.2 7.3-3.2l2.4 3.3s-3.5 4.1-9.9 4.1c-7.7 0-13-5.7-13-13.1-.1-7.3 5.4-12.9 12.9-12.9zm26.7 19.2H427l-2.1 6.5h-4.7l8.9-25.2h4.8l8.9 25.2h-4.7l-2.3-6.5zm-4.5-14.4s-.6 2.5-1.1 3.9l-2.2 6.7h6.6l-2.2-6.7c-.5-1.4-1-3.9-1.1-3.9zm18.3-.4h-8.3V143h21.1v3.9h-8.3v21.2h-4.6v-21.2zm16.1-4h4.6v25.2h-4.6v-25.2zm22.3-.4c7.4 0 13 5.6 13 12.8 0 7.4-5.6 13.2-13 13.2s-13-5.8-13-13.2c0-7.1 5.6-12.8 13-12.8zm0 21.9c4.6 0 8.3-3.8 8.3-9 0-5-3.7-8.7-8.3-8.7s-8.3 3.7-8.3 8.7c0 5.1 3.7 9 8.3 9zm17.6-21.5h4.6l9.5 14.5c1 1.5 2.1 3.9 2.1 3.9h.1s-.2-2.4-.2-3.9v-14.5h4.5v25.2h-4.5l-9.5-14.5c-1-1.5-2.1-3.9-2.1-3.9h-.1s.2 2.4.2 3.9v14.5h-4.6v-25.2zm36.2 18.8s2.7 2.7 6.3 2.7c1.9 0 3.7-1 3.7-3 0-4.5-11.9-3.7-11.9-11.5 0-4.2 3.6-7.3 8.4-7.3 5 0 7.5 2.7 7.5 2.7l-2 3.7s-2.4-2.2-5.6-2.2c-2.1 0-3.8 1.2-3.8 3 0 4.5 11.8 3.4 11.8 11.4 0 4-3 7.4-8.3 7.4-5.6 0-8.7-3.4-8.7-3.4l2.6-3.5zm19-18.8h15.1v3.9h-10.5v6.6h8.5v3.9h-8.5v6.8h11.1v3.9h-15.6v-25.1zm20.4 0h8.1c2.7 0 4 .2 5.1.7 2.5 1.1 4.1 3.5 4.1 6.9 0 3-1.6 5.8-4.3 6.9v.1s.4.4.9 1.2l5.2 9.4h-5.1l-5-9.4h-4.4v9.4h-4.6v-25.2zm8.7 11.9c2.4 0 4-1.5 4-4 0-2.4-1-3.9-4.6-3.9h-3.5v7.9h4.1zm11.3-11.9h4.9l5.5 16.4c.5 1.5.9 3.7 1 3.7h.1s.5-2.2 1-3.7l5.6-16.4h4.9l-9.2 25.2h-4.5l-9.3-25.2zm26 0h4.6v25.2h-4.6v-25.2zm22.2-.4c6.1 0 9.3 3.4 9.3 3.4l-2.2 3.4s-2.9-2.7-6.9-2.7c-5.3 0-8.4 4-8.4 8.7 0 4.8 3.2 9 8.5 9 4.4 0 7.3-3.2 7.3-3.2l2.4 3.3s-3.5 4.1-9.9 4.1c-7.7 0-13-5.7-13-13.1-.1-7.3 5.5-12.9 12.9-12.9zm14.2.4h15.1v3.9h-10.5v6.6h8.5v3.9h-8.5v6.8h11.1v3.9h-15.6v-25.1zm20.9 18.8s2.7 2.7 6.3 2.7c1.9 0 3.7-1 3.7-3 0-4.5-11.9-3.7-11.9-11.5 0-4.2 3.6-7.3 8.4-7.3 5 0 7.5 2.7 7.5 2.7l-2 3.7s-2.4-2.2-5.6-2.2c-2.1 0-3.8 1.2-3.8 3 0 4.5 11.8 3.4 11.8 11.4 0 4-3 7.4-8.3 7.4-5.6 0-8.7-3.4-8.7-3.4l2.6-3.5z" fill="#fff"/></svg>